<?xml version="1.0" encoding="UTF-8" standalone="no"?>
<!-- Created with Inkscape (http://www.inkscape.org/) -->

<svg
   xmlns:dc="http://purl.org/dc/elements/1.1/"
   xmlns:cc="http://creativecommons.org/ns#"
   xmlns:rdf="http://www.w3.org/1999/02/22-rdf-syntax-ns#"
   xmlns:svg="http://www.w3.org/2000/svg"
   xmlns="http://www.w3.org/2000/svg"
   xmlns:sodipodi="http://sodipodi.sourceforge.net/DTD/sodipodi-0.dtd"
   xmlns:inkscape="http://www.inkscape.org/namespaces/inkscape"
   width="85"
   height="24"
   viewBox="0 0 22.489582 6.3499999"
   version="1.1"
   id="svg8"
   inkscape:version="0.92.2 (5c3e80d, 2017-08-06)"
   sodipodi:docname="ec4j-logo-with-name.svg"
   inkscape:export-filename="/home/ppalaga/zzz/ec4j-logos/ec4j-logo7.svg.png"
   inkscape:export-xdpi="1024"
   inkscape:export-ydpi="1024">
  <defs
     id="defs2" />
  <sodipodi:namedview
     id="base"
     pagecolor="#ffffff"
     bordercolor="#666666"
     borderopacity="1.0"
     inkscape:pageopacity="0.0"
     inkscape:pageshadow="2"
     inkscape:zoom="7.919596"
     inkscape:cx="8.0117151"
     inkscape:cy="21.652856"
     inkscape:document-units="px"
     inkscape:current-layer="layer1"
     showgrid="true"
     units="px"
     borderlayer="false"
     inkscape:pagecheckerboard="true"
     inkscape:window-width="1830"
     inkscape:window-height="1051"
     inkscape:window-x="82"
     inkscape:window-y="0"
     inkscape:window-maximized="1"
     gridtolerance="7">
    <inkscape:grid
       type="xygrid"
       id="grid815"
       spacingx="0.13229167"
       spacingy="0.13229167"
       empspacing="2"
       visible="false" />
  </sodipodi:namedview>
  <metadata
     id="metadata5">
    <rdf:RDF>
      <cc:Work
         rdf:about="">
        <dc:format>image/svg+xml</dc:format>
        <dc:type
           rdf:resource="http://purl.org/dc/dcmitype/StillImage" />
        <dc:title></dc:title>
      </cc:Work>
    </rdf:RDF>
  </metadata>
  <g
     inkscape:label="Layer 1"
     inkscape:groupmode="layer"
     id="layer1"
     transform="translate(0,-290.65)">
    <rect
       style="fill:#ffffff;fill-opacity:1;stroke:#000000;stroke-width:0.26458332;stroke-linecap:round;stroke-linejoin:round;stroke-miterlimit:4;stroke-dasharray:none;stroke-opacity:1"
       id="rect900"
       width="6.0854168"
       height="6.0854206"
       x="0.13229197"
       y="290.78229"
       ry="1.0607039"
       rx="1.0583336" />
    <path
       style="fill:#000005;fill-opacity:1;stroke:none;stroke-width:0.26458332px;stroke-linecap:butt;stroke-linejoin:miter;stroke-opacity:1"
       d="m 5.2916591,296.99875 -4.2281654,0.001 c -0.58763002,1.7e-4 -1.06105262,-0.47171 -1.06122072,-1.05803 l -0.00121,-4.23333 c -8.409336e-5,-0.29302 0.032826,-0.40673 0.3098439,-0.74837 0.2770182,-0.34164 0.6158942,-0.31023 0.74818582,-0.31027 -7.59e-4,4.76276 4.2325744,1.58776 4.2325705,6.34879 z"
       id="path1007"
       inkscape:connector-curvature="0"
       sodipodi:nodetypes="cssszccc" />
    <rect
       style="fill:#000007;fill-opacity:1;stroke:none;stroke-width:0.05;stroke-linecap:round;stroke-linejoin:round;stroke-miterlimit:4;stroke-dasharray:none;stroke-opacity:1"
       id="rect836-2"
       width="0.26458332"
       height="0.26458332"
       x="2.6458337"
       y="291.9729"
       ry="0.067564368" />
    <rect
       style="fill:#000007;fill-opacity:1;stroke:none;stroke-width:0.05;stroke-linecap:round;stroke-linejoin:round;stroke-miterlimit:4;stroke-dasharray:none;stroke-opacity:1"
       id="rect836-8-6"
       width="0.26458332"
       height="0.26458332"
       x="3.4395838"
       y="291.9729"
       ry="0.067564376"
       inkscape:transform-center-x="0.49486624"
       inkscape:transform-center-y="-0.093961944" />
    <rect
       style="fill:#000007;fill-opacity:1;stroke:none;stroke-width:0.05;stroke-linecap:round;stroke-linejoin:round;stroke-miterlimit:4;stroke-dasharray:none;stroke-opacity:1"
       id="rect836-8-1-9"
       width="0.26458332"
       height="0.26458332"
       x="4.2333336"
       y="291.9729"
       ry="0.067564376"
       inkscape:transform-center-x="0.49486624"
       inkscape:transform-center-y="-0.093961944" />
    <rect
       style="fill:#000007;fill-opacity:1;stroke:none;stroke-width:0.05;stroke-linecap:round;stroke-linejoin:round;stroke-miterlimit:4;stroke-dasharray:none;stroke-opacity:1"
       id="rect836-8-2-1"
       width="0.26458332"
       height="0.26458332"
       x="5.0270839"
       y="291.9729"
       ry="0.067564376"
       inkscape:transform-center-x="0.49486624"
       inkscape:transform-center-y="-0.093961944" />
    <path
       style="fill:none;stroke:#ffffff;stroke-width:0.26499999;stroke-linecap:round;stroke-linejoin:round;stroke-miterlimit:4;stroke-dasharray:none;stroke-opacity:1"
       d="M 0.92604198,295.5448 H 3.3072922"
       id="path980"
       inkscape:connector-curvature="0" />
    <path
       style="fill:none;stroke:#ffffff;stroke-width:0.26458332px;stroke-linecap:round;stroke-linejoin:round;stroke-opacity:1"
       d="m 2.5135422,295.01563 0.79375,0.52917 -0.79375,0.52917"
       id="path982"
       inkscape:connector-curvature="0" />
    <path
       style="fill:none;stroke:#ffffff;stroke-width:0.26458332px;stroke-linecap:round;stroke-linejoin:round;stroke-opacity:1"
       d="m 3.3072922,295.01563 v 1.05834"
       id="path986"
       inkscape:connector-curvature="0" />
    <g
       aria-label="ec4j"
       style="font-style:normal;font-variant:normal;font-weight:normal;font-stretch:normal;font-size:11.28888893px;line-height:1.25;font-family:sans-serif;-inkscape-font-specification:'sans-serif, Normal';font-variant-ligatures:normal;font-variant-caps:normal;font-variant-numeric:normal;font-feature-settings:normal;text-align:start;letter-spacing:0px;word-spacing:0px;writing-mode:lr-tb;text-anchor:start;fill:#000000;fill-opacity:1;stroke:#000000;stroke-width:0.02645833;stroke-miterlimit:4;stroke-dasharray:none;stroke-opacity:1"
       id="text827">
      <path
         d="M 10.483938,294.47962 H 7.8298369 q 0.068213,0.5054 0.4216797,0.81545 0.3565674,0.30696 0.8805664,0.30696 0.2914551,0 0.6108154,-0.0961 0.3193606,-0.0961 0.5208986,-0.25424 0.05891,-0.0465 0.102319,-0.0465 0.04961,0 0.08682,0.0403 0.03721,0.0372 0.03721,0.0899 0,0.0527 -0.04961,0.10232 -0.148828,0.15503 -0.5301999,0.29146 -0.3782715,0.13332 -0.7782471,0.13332 -0.6697265,0 -1.1193115,-0.43718 -0.4464844,-0.44028 -0.4464844,-1.0635 0,-0.56741 0.4185791,-0.97359 0.4216797,-0.40617 1.0417969,-0.40617 0.6387207,0 1.0510989,0.41858 0.412378,0.41547 0.406176,1.079 z m -0.263549,-0.26355 q -0.07752,-0.43098 -0.4092777,-0.70073 -0.3286621,-0.26975 -0.7844482,-0.26975 -0.4557861,0 -0.7844482,0.26665 -0.3286622,0.26665 -0.4092774,0.70383 z"
         style="font-style:normal;font-variant:normal;font-weight:normal;font-stretch:normal;font-size:6.3499999px;font-family:'Courier New';-inkscape-font-specification:'Courier New, Normal';font-variant-ligatures:normal;font-variant-caps:normal;font-variant-numeric:normal;font-feature-settings:normal;text-align:start;writing-mode:lr-tb;text-anchor:start;fill:#000000;fill-opacity:1;stroke:#000000;stroke-width:0.02645833;stroke-miterlimit:4;stroke-dasharray:none;stroke-opacity:1"
         id="path824" />
      <path
         d="m 13.968997,293.3386 v -0.0868 q 0,-0.0961 0.03721,-0.13643 0.03721,-0.0403 0.09302,-0.0403 0.05891,0 0.09612,0.0403 0.03721,0.0403 0.03721,0.13643 v 0.58911 q -0.0031,0.0961 -0.04031,0.13643 -0.03411,0.0403 -0.09302,0.0403 -0.05271,0 -0.08992,-0.0341 -0.03411,-0.0372 -0.04031,-0.12093 -0.0186,-0.22014 -0.291455,-0.41858 -0.269751,-0.19843 -0.728638,-0.19843 -0.579809,0 -0.880566,0.36277 -0.300757,0.36276 -0.300757,0.83095 0,0.5054 0.331763,0.83406 0.331762,0.32866 0.858862,0.32866 0.303857,0 0.617017,-0.11162 0.316259,-0.11162 0.570507,-0.35967 0.06511,-0.062 0.114722,-0.062 0.05271,0 0.08682,0.0372 0.03721,0.0341 0.03721,0.0868 0,0.13332 -0.313159,0.33796 -0.505395,0.33176 -1.125512,0.33176 -0.629419,0 -1.035596,-0.39997 -0.403076,-0.40308 -0.403076,-1.0201 0,-0.62942 0.412378,-1.04489 0.415478,-0.41548 1.044897,-0.41548 0.598413,0 1.00459,0.35656 z"
         style="font-style:normal;font-variant:normal;font-weight:normal;font-stretch:normal;font-size:6.3499999px;font-family:'Courier New';-inkscape-font-specification:'Courier New, Normal';font-variant-ligatures:normal;font-variant-caps:normal;font-variant-numeric:normal;font-feature-settings:normal;text-align:start;writing-mode:lr-tb;text-anchor:start;fill:#000000;fill-opacity:1;stroke:#000000;stroke-width:0.02645833;stroke-miterlimit:4;stroke-dasharray:none;stroke-opacity:1"
         id="path826" />
      <path
         d="m 17.175003,294.67186 h -1.727027 v -0.30076 l 1.447974,-2.50217 h 0.542603 v 2.54248 h 0.217041 q 0.09612,0 0.136425,0.0372 0.04031,0.0341 0.04031,0.093 0,0.0558 -0.04031,0.093 -0.04031,0.0372 -0.136425,0.0372 h -0.217041 v 0.82785 h 0.217041 q 0.09612,0 0.136425,0.0372 0.04031,0.0341 0.04031,0.093 0,0.0558 -0.04031,0.093 -0.04031,0.0372 -0.136425,0.0372 h -0.967383 q -0.09612,0 -0.136426,-0.0372 -0.04031,-0.0372 -0.04031,-0.093 0,-0.0589 0.04031,-0.093 0.04031,-0.0372 0.136426,-0.0372 h 0.486792 z m 0,-0.26045 v -2.27893 h -0.136426 l -1.317749,2.27893 z"
         style="font-style:normal;font-variant:normal;font-weight:normal;font-stretch:normal;font-size:6.3499999px;font-family:'Courier New';-inkscape-font-specification:'Courier New, Normal';font-variant-ligatures:normal;font-variant-caps:normal;font-variant-numeric:normal;font-feature-settings:normal;text-align:start;writing-mode:lr-tb;text-anchor:start;fill:#000000;fill-opacity:1;stroke:#000000;stroke-width:0.02645833;stroke-miterlimit:4;stroke-dasharray:none;stroke-opacity:1"
         id="path828" />
      <path
         d="m 20.870901,291.7387 v 0.67283 h -0.384473 v -0.67283 z m 0.0155,1.5999 h -1.547193 q -0.09302,0 -0.133325,-0.0372 -0.04031,-0.0372 -0.04031,-0.0961 0,-0.0558 0.03721,-0.093 0.04031,-0.0372 0.136426,-0.0372 h 1.807642 v 2.86805 q 0,0.33176 -0.136426,0.555 -0.136426,0.22324 -0.409277,0.36277 -0.189136,0.0961 -0.449585,0.0961 h -0.827857 q -0.09302,0 -0.133325,-0.0372 -0.04031,-0.0341 -0.04031,-0.093 0,-0.0589 0.04031,-0.0961 0.04031,-0.0372 0.133325,-0.0372 l 0.821655,0.003 q 0.331763,0 0.536402,-0.21704 0.204639,-0.21704 0.204639,-0.5364 z"
         style="font-style:normal;font-variant:normal;font-weight:normal;font-stretch:normal;font-size:6.3499999px;font-family:'Courier New';-inkscape-font-specification:'Courier New, Normal';font-variant-ligatures:normal;font-variant-caps:normal;font-variant-numeric:normal;font-feature-settings:normal;text-align:start;writing-mode:lr-tb;text-anchor:start;fill:#000000;fill-opacity:1;stroke:#000000;stroke-width:0.02645833;stroke-miterlimit:4;stroke-dasharray:none;stroke-opacity:1"
         id="path830" />
    </g>
  </g>
</svg>
